<?xml version="1.0" encoding="UTF-8" standalone="no"?><!DOCTYPE svg PUBLIC "-//W3C//DTD SVG 1.1//EN" "http://www.w3.org/Graphics/SVG/1.1/DTD/svg11.dtd"><svg width="100%" height="100%" viewBox="0 0 1639 1068" version="1.1" xmlns="http://www.w3.org/2000/svg" xmlns:xlink="http://www.w3.org/1999/xlink" xml:space="preserve" xmlns:serif="http://www.serif.com/" style="fill-rule:evenodd;clip-rule:evenodd;stroke-linecap:round;stroke-linejoin:round;stroke-miterlimit:1.5;"><rect id="Icon" x="0" y="0" width="1638.93" height="1067.29" style="fill:none;"/><circle cx="640.709" cy="477.722" r="25.401" style="fill:#bfbfbf;"/><path d="M918.167,462.103c104.976,48.232 132.81,123.183 77.95,175.603c-53.06,50.699 -167.569,61.703 -273.572,15.838c-106.941,-46.272 -117.544,-132.415 -63.56,-185.245c53.983,-52.829 154.205,-54.428 259.182,-6.196Z" style="fill:#ebebeb;"/><path d="M901.976,343.147c14.903,-3.613 35.271,27.555 45.454,69.559c10.183,42.003 6.351,79.039 -8.553,82.652c-14.903,3.613 -35.271,-27.555 -45.454,-69.559c-10.183,-42.004 -6.351,-79.039 8.553,-82.652Z" style="fill:#b3b3b3;"/><path d="M947.843,606.691c24.342,26.01 26.562,-13.408 24.017,-10.155c1.11,3.811 31.876,15.139 22.472,-12.714" style="fill:none;stroke:#404040;stroke-width:2.7px;"/><path d="M761.454,415.457c9.983,-11.641 45.698,2.586 79.706,31.75c34.008,29.165 53.513,62.294 43.53,73.935c-9.983,11.641 -45.698,-2.586 -79.706,-31.751c-34.008,-29.164 -53.513,-62.294 -43.53,-73.934Z" style="fill:#bfbfbf;"/><path d="M904.403,577.008c3.654,-0.577 7.355,3.603 8.26,9.33c0.906,5.727 -1.326,10.845 -4.979,11.423c-3.654,0.577 -7.355,-3.603 -8.26,-9.33c-0.906,-5.727 1.325,-10.845 4.979,-11.423Z" style="fill:#4d4d4d;"/><path d="M988.048,541.646c3.057,-2.084 8.053,-0.085 11.15,4.46c3.098,4.545 3.131,9.926 0.075,12.009c-3.057,2.084 -8.053,0.085 -11.151,-4.46c-3.097,-4.545 -3.131,-9.926 -0.074,-12.009Z" style="fill:#4d4d4d;"/></svg>